<?xml version="1.0" encoding="utf-8"?>
<!-- Generator: Adobe Illustrator 16.0.0, SVG Export Plug-In . SVG Version: 6.00 Build 0)  -->
<!DOCTYPE svg PUBLIC "-//W3C//DTD SVG 1.1//EN" "http://www.w3.org/Graphics/SVG/1.1/DTD/svg11.dtd">
<svg version="1.1" id="레이어_1" xmlns="http://www.w3.org/2000/svg" xmlns:xlink="http://www.w3.org/1999/xlink" x="0px"
	 y="0px" width="160px" height="160px" viewBox="0 0 160 160" enable-background="new 0 0 160 160" xml:space="preserve">
<path fill="#FFFFFF" d="M96.723,135.342v4.326c0,3.439-2.506,6.305-5.763,6.792l-1.058,3.931c-0.572,2.131-2.473,3.623-4.676,3.623
	H74.761c-2.202,0-4.103-1.492-4.678-3.623l-1.024-3.931c-3.289-0.519-5.793-3.353-5.793-6.823v-4.324
	c0-2.315,1.84-4.174,4.133-4.174h25.19C94.881,131.169,96.723,133.027,96.723,135.342z M116.119,77.041
	c0,9.837-3.861,18.762-10.137,25.313c-4.768,4.994-7.844,11.362-8.869,18.154c-0.452,2.924-2.955,5.086-5.913,5.086H68.786
	c-2.925,0-5.459-2.133-5.882-5.056c-1.055-6.792-4.162-13.251-8.928-18.216c-6.155-6.457-9.985-15.23-10.076-24.887
	C43.69,57.149,59.678,40.73,79.769,40.579C99.829,40.428,116.119,56.814,116.119,77.041z M84.082,54.956
	c0-2.254-1.813-4.111-4.073-4.111c-14.359,0-26.064,11.787-26.064,26.318c0,2.254,1.81,4.112,4.072,4.112
	c2.232,0,4.073-1.829,4.073-4.112c0-9.992,8.054-18.095,17.919-18.095C82.271,59.068,84.082,57.241,84.082,54.956z M80.009,28.608
	c2.233,0,4.073-1.828,4.073-4.112V10.087c0-2.254-1.813-4.11-4.073-4.11c-2.263,0-4.073,1.826-4.073,4.11v14.409
	C75.937,26.78,77.776,28.608,80.009,28.608z M32.074,77.009c0-2.254-1.811-4.111-4.072-4.111h-14.27
	c-2.232,0-4.072,1.827-4.072,4.111c0,2.256,1.81,4.114,4.072,4.114h14.27C30.263,81.123,32.074,79.293,32.074,77.009z
	 M146.285,72.897h-14.27c-2.231,0-4.072,1.827-4.072,4.111c0,2.256,1.811,4.114,4.072,4.114h14.27c2.232,0,4.072-1.83,4.072-4.114
	C150.357,74.755,148.548,72.897,146.285,72.897z M40.369,111.247l-10.106,10.205c-1.599,1.614-1.599,4.202,0,5.817
	c0.785,0.793,1.84,1.188,2.866,1.188s2.083-0.396,2.866-1.188l10.106-10.205c1.599-1.612,1.599-4.205,0-5.817
	C44.532,109.634,41.938,109.634,40.369,111.247z M116.783,43.99c1.023,0,2.08-0.396,2.863-1.187l10.106-10.204
	c1.601-1.615,1.601-4.205,0-5.818c-1.599-1.615-4.163-1.615-5.761,0l-10.106,10.205c-1.599,1.615-1.599,4.203,0,5.818
	C114.701,43.594,115.727,43.99,116.783,43.99z M40.369,42.772c0.785,0.792,1.84,1.187,2.866,1.187c1.026,0,2.081-0.395,2.866-1.187
	c1.599-1.615,1.599-4.205,0-5.818L35.995,26.75c-1.599-1.615-4.164-1.615-5.761,0c-1.599,1.615-1.599,4.203,0,5.818L40.369,42.772z
	 M119.646,111.247c-1.599-1.613-4.16-1.613-5.76,0c-1.6,1.612-1.6,4.205,0,5.817l10.105,10.205c0.783,0.793,1.84,1.188,2.863,1.188
	c1.026,0,2.084-0.396,2.867-1.188c1.598-1.615,1.598-4.203,0-5.817L119.646,111.247z"/>
</svg>
