<?xml version="1.0" encoding="utf-8"?>
<!-- Generator: Adobe Illustrator 16.0.0, SVG Export Plug-In . SVG Version: 6.00 Build 0)  -->
<!DOCTYPE svg PUBLIC "-//W3C//DTD SVG 1.1//EN" "http://www.w3.org/Graphics/SVG/1.1/DTD/svg11.dtd">
<svg version="1.1" id="레이어_1" xmlns="http://www.w3.org/2000/svg" xmlns:xlink="http://www.w3.org/1999/xlink" x="0px"
	 y="0px" width="160px" height="160px" viewBox="0 0 160 160" enable-background="new 0 0 160 160" xml:space="preserve">
<g>
	<g>
		<path d="M79.647,36.006c19.12,20.694,32.197,45.276,32.197,61.713c0,17.56-14.284,31.845-31.844,31.845
			c-17.559,0-31.846-14.285-31.846-31.845C48.154,80.716,63.984,52.904,79.647,36.006 M80,16.069
			c-20.83,16.283-46.211,56.129-46.211,81.65c0,25.522,20.69,46.213,46.211,46.213c25.521,0,46.212-20.69,46.212-46.213
			C126.212,72.198,104.185,38.337,80,16.069L80,16.069z"/>
		<path d="M85.267,120.827c-2.152,0-4.146-1.394-4.808-3.56c-0.812-2.656,0.683-5.467,3.338-6.28
			c11.784-3.601,9.886-13.066,9.629-14.135c-0.645-2.701,1.022-5.413,3.723-6.06c2.697-0.643,5.412,1.02,6.06,3.723
			c1.621,6.786,0.267,20.973-16.47,26.09C86.248,120.756,85.752,120.827,85.267,120.827z"/>
	</g>
	<g>
		<path d="M26.738,98.37c0-8.327,2.168-16.31,6.091-23.292C16.147,88.267,5.338,109.183,5.338,132.772c15.313,0,26.76,0,36.172,0
			C32.419,124.104,26.738,111.893,26.738,98.37z"/>
		<path d="M133.262,98.37c0,13.522-5.682,25.734-14.773,34.402c9.667,0,21.347,0,36.174,0c0-23.59-10.812-44.507-27.496-57.698
			C131.091,82.057,133.262,90.042,133.262,98.37z"/>
	</g>
</g>
</svg>
