<?xml version="1.0" encoding="utf-8"?>
<!-- Generator: Adobe Illustrator 16.0.0, SVG Export Plug-In . SVG Version: 6.00 Build 0)  -->
<!DOCTYPE svg PUBLIC "-//W3C//DTD SVG 1.1//EN" "http://www.w3.org/Graphics/SVG/1.1/DTD/svg11.dtd">
<svg version="1.1" id="레이어_1" xmlns="http://www.w3.org/2000/svg" xmlns:xlink="http://www.w3.org/1999/xlink" x="0px"
	 y="0px" width="160px" height="160px" viewBox="0 0 160 160" enable-background="new 0 0 160 160" xml:space="preserve">
<g>
	<path fill="#FFFFFF" d="M114.876,32.87c-12.147,0-21.995,9.85-21.995,21.996c0,2.613,0.479,5.106,1.313,7.431L80,70.492
		l-14.354-8.285c0.938-2.446,1.474-5.094,1.474-7.869c0-12.147-9.848-21.995-21.995-21.995c-12.148,0-21.996,9.848-21.996,21.995
		c0,12.148,9.848,21.995,21.996,21.995c6.521,0,12.359-2.853,16.388-7.36l14.524,8.384v15.661
		c-10.06,2.023-17.636,10.904-17.636,21.562c0,12.147,9.847,21.995,21.995,21.995s21.995-9.848,21.995-21.995
		c0-10.933-7.98-19.974-18.429-21.683v-15.54l14.209-8.201c4.034,4.711,10.015,7.706,16.704,7.706
		c12.146,0,21.995-9.846,21.995-21.995C136.871,42.72,127.023,32.87,114.876,32.87z M45.125,65.236
		c-6.01,0-10.899-4.889-10.899-10.898c0-6.009,4.89-10.898,10.899-10.898s10.898,4.889,10.898,10.898
		C56.023,60.347,51.135,65.236,45.125,65.236z M91.295,114.578c0,6.01-4.889,10.898-10.898,10.898
		c-6.009,0-10.898-4.89-10.898-10.898c0-6.01,4.889-10.898,10.898-10.898C86.406,103.68,91.295,108.568,91.295,114.578z
		 M114.876,65.765c-6.01,0-10.897-4.889-10.897-10.898c0-6.009,4.889-10.899,10.897-10.899s10.897,4.89,10.897,10.899
		C125.773,60.876,120.887,65.765,114.876,65.765z"/>
	<circle fill="#FFFFFF" cx="80.198" cy="35.183" r="11.756"/>
	<circle fill="#FFFFFF" cx="114.678" cy="94.234" r="11.756"/>
	<circle fill="#FFFFFF" cx="45.719" cy="94.234" r="11.756"/>
</g>
</svg>
