<?xml version="1.0" encoding="utf-8"?>
<!-- Generator: Adobe Illustrator 16.0.0, SVG Export Plug-In . SVG Version: 6.00 Build 0)  -->
<!DOCTYPE svg PUBLIC "-//W3C//DTD SVG 1.1//EN" "http://www.w3.org/Graphics/SVG/1.1/DTD/svg11.dtd">
<svg version="1.1" id="레이어_1" xmlns="http://www.w3.org/2000/svg" xmlns:xlink="http://www.w3.org/1999/xlink" x="0px"
	 y="0px" width="160px" height="160px" viewBox="0 0 160 160" enable-background="new 0 0 160 160" xml:space="preserve">
<g>
	<g>
		<path fill="#FFFFFF" d="M139.346,76.543H94.318c-3.271,0-6.444,0.097-9.53,0.277c-2.999-17.041-24.589-38.528-29.173-42.93
			c-2.93-2.811-7.539-2.811-10.466,0C40.218,38.623,15.62,63.11,15.62,80.584c0,8.927,3.349,17.081,8.849,23.266
			c-11.467,15.549-11.83,33.172-11.213,41.424c0,0.015,0.002,0.023,0.002,0.037c0.203,2.705,0.509,4.408,0.559,4.67
			c0.685,3.593,3.809,6.19,7.446,6.19h46.459c40.672,0,60.127-19.628,69.286-36.092c9.805-17.627,9.916-35.175,9.916-35.912
			C146.925,79.958,143.533,76.543,139.346,76.543z M50.382,50.257c8.393,9.008,17.692,21.102,19.341,28.287
			c0.167,0.735,0.258,1.417,0.258,2.04c0,6.121-2.788,11.6-7.158,15.217c-3.048,2.526-6.87,4.141-11.048,4.438
			c-0.459,0.032-0.924,0.055-1.393,0.055c-6.169,0-11.675-2.881-15.272-7.374c-2.705-3.381-4.327-7.67-4.327-12.335
			C30.783,73.856,41.135,60.185,50.382,50.257z M123.773,112.635c-10.438,18.771-29.299,28.289-56.051,28.289h-30.12
			c10.228-5.945,21.411-8.52,21.56-8.555c4.088-0.909,6.671-4.977,5.77-9.088c-0.906-4.113-4.949-6.707-9.038-5.801
			c-0.769,0.17-13.694,3.121-26.135,10.428c1.217-4.934,3.361-10.231,7.025-15.154c4.178,1.792,8.774,2.788,13.597,2.788
			c15.116,0,28.003-9.757,32.779-23.333c3.557-0.275,7.271-0.417,11.158-0.417h36.652
			C130.055,97.232,128.064,104.922,123.773,112.635z M100.457,63.286c13.852,0,25.12-11.332,25.12-25.263
			c0-12.066-15.222-27.611-19.888-32.087c-2.928-2.811-7.537-2.811-10.467,0c-4.666,4.476-19.888,20.021-19.888,32.087
			C75.336,51.954,86.604,63.286,100.457,63.286z M100.461,22.439c5.633,6.378,9.955,12.966,9.955,15.584
			c0,5.524-4.469,10.014-9.959,10.014s-9.958-4.489-9.958-10.014C90.499,35.416,94.827,28.828,100.461,22.439z"/>
	</g>
</g>
</svg>
