<?xml version="1.0" encoding="utf-8"?>
<!-- Generator: Adobe Illustrator 16.0.0, SVG Export Plug-In . SVG Version: 6.00 Build 0)  -->
<!DOCTYPE svg PUBLIC "-//W3C//DTD SVG 1.1//EN" "http://www.w3.org/Graphics/SVG/1.1/DTD/svg11.dtd">
<svg version="1.1" id="레이어_1" xmlns="http://www.w3.org/2000/svg" xmlns:xlink="http://www.w3.org/1999/xlink" x="0px"
	 y="0px" width="160px" height="160px" viewBox="0 0 160 160" enable-background="new 0 0 160 160" xml:space="preserve">
<g>
	<path fill="#FFFFFF" d="M128.282,125.532l-93.486-0.011c-0.396,0.021-0.801,0.01-1.201,0l-4.377-0.002l0.224-0.426
		c-13.136-2.347-23.138-13.854-23.138-27.656c0-13.379,9.243-24.635,21.989-27.429c0.173-19.628,16.195-35.543,35.862-35.543
		c14.142,0,26.648,8.11,32.479,20.618c5.041-3.211,10.9-4.942,16.923-4.942c17.219,0,31.264,13.847,31.584,30.989
		c5.459,4.83,8.555,11.651,8.555,18.988C153.695,114.133,142.295,125.532,128.282,125.532z M64.155,41.591
		c-15.846,0-28.738,12.893-28.738,28.738c0,0.733,0.035,1.52,0.109,2.405l0.289,3.498l-3.492,0.342
		C21.552,77.63,13.429,86.6,13.429,97.438c0,11.563,9.407,20.971,20.97,20.971l0.181-0.012c0.144-0.01,0.287-0.02,0.434-0.024
		l6.13-0.207l-0.122,0.231l87.262,0.012c10.083,0,18.288-8.204,18.288-18.288c0-5.724-2.627-11.017-7.203-14.521l-1.461-1.117
		l0.064-1.84c0.008-0.179,0.019-0.356,0.03-0.535c0.009-0.125,0.021-0.248,0.021-0.375c0-13.489-10.976-24.464-24.465-24.464
		c-5.947,0-11.695,2.186-16.184,6.157l-4.131,3.654l-1.635-5.268C87.861,49.717,76.829,41.591,64.155,41.591z"/>
	<g>
		<path fill="#FFFFFF" d="M86.464,87.408c-0.512-0.624-1.141-1.071-1.89-1.346c-0.749-0.271-1.621-0.408-2.62-0.408
			s-1.872,0.137-2.62,0.408c-0.749,0.273-1.379,0.722-1.89,1.346c-0.511,0.624-0.891,1.459-1.14,2.501
			c-0.25,1.043-0.375,2.338-0.375,3.88v0.715c0,1.544,0.125,2.837,0.375,3.881c0.249,1.043,0.629,1.877,1.14,2.5
			c0.511,0.625,1.141,1.073,1.89,1.344c0.748,0.273,1.621,0.41,2.62,0.41s1.871-0.137,2.62-0.41c0.749-0.271,1.378-0.719,1.89-1.344
			c0.511-0.623,0.89-1.457,1.142-2.5c0.248-1.044,0.373-2.337,0.373-3.881v-0.715c0-1.542-0.125-2.837-0.373-3.88
			C87.354,88.867,86.975,88.032,86.464,87.408z"/>
		<path fill="#FFFFFF" d="M136.335,89.561l-3.507-2.683l0.16-4.414c0.007-0.233,0.021-0.465,0.037-0.696l0.011-0.16
			c-0.002-10.614-8.739-19.353-19.479-19.353c-4.729,0-9.304,1.743-12.879,4.905l-9.914,8.771l-3.918-12.643
			C83.749,53.294,74.63,46.58,64.155,46.58c-13.096,0-23.751,10.654-23.751,23.75c0,0.594,0.03,1.246,0.093,1.993l0.694,8.394
			l-8.381,0.822c-8.206,0.805-14.395,7.641-14.395,15.898c0,8.766,7.093,15.903,15.838,15.982c0.229-0.018,0.409-0.027,0.59-0.031
			l93.438,0.031c7.334,0,13.301-5.967,13.301-13.301C141.583,95.962,139.671,92.113,136.335,89.561z M67.082,104.477
			c-0.977,0.703-2.116,1.236-3.421,1.601c-1.305,0.364-2.739,0.544-4.305,0.544c-1.611,0-3.047-0.227-4.306-0.682
			c-1.259-0.453-2.326-1.155-3.199-2.109c-0.874-0.952-1.543-2.171-2.008-3.658c-0.466-1.486-0.698-3.262-0.698-5.326V93.45
			c0-2.065,0.232-3.841,0.698-5.327c0.465-1.484,1.14-2.705,2.024-3.659c0.886-0.952,1.975-1.653,3.268-2.108
			c1.293-0.455,2.757-0.682,4.391-0.682c1.565,0,2.927,0.17,4.084,0.512c1.157,0.34,2.132,0.781,2.927,1.326
			c0.521,0.364,0.806,0.807,0.852,1.327c0.045,0.522-0.092,1.011-0.409,1.464c-0.295,0.432-0.681,0.715-1.157,0.852
			c-0.477,0.137-0.953,0.057-1.429-0.238c-0.727-0.432-1.464-0.743-2.213-0.936c-0.749-0.193-1.667-0.289-2.757-0.289
			c-1.883,0-3.335,0.617-4.356,1.854c-1.021,1.236-1.531,3.317-1.531,6.244v0.715c0,2.859,0.488,4.918,1.464,6.179
			c0.976,1.26,2.462,1.889,4.458,1.889c1.135,0,2.127-0.131,2.978-0.391c0.852-0.264,1.674-0.654,2.468-1.176
			c0.454-0.316,0.931-0.438,1.43-0.357s0.919,0.357,1.259,0.834c0.341,0.478,0.477,1,0.408,1.564
			C67.933,103.614,67.626,104.09,67.082,104.477z M92.368,94.844c0,2.065-0.233,3.842-0.698,5.327
			c-0.465,1.487-1.141,2.706-2.023,3.658c-0.886,0.954-1.976,1.657-3.268,2.11c-1.294,0.453-2.77,0.681-4.425,0.681
			c-1.656,0-3.131-0.228-4.424-0.681c-1.294-0.453-2.383-1.156-3.268-2.11c-0.886-0.952-1.561-2.171-2.025-3.658
			c-0.466-1.485-0.698-3.262-0.698-5.327v-1.395c0-2.065,0.232-3.842,0.698-5.327c0.465-1.485,1.14-2.705,2.025-3.659
			c0.885-0.952,1.974-1.654,3.268-2.109c1.293-0.453,2.768-0.681,4.424-0.681c1.655,0,3.131,0.228,4.425,0.681
			c1.292,0.455,2.383,1.157,3.268,2.109c0.885,0.954,1.56,2.174,2.023,3.659c0.465,1.485,0.698,3.262,0.698,5.327V94.844z
			 M113.129,105.719c-0.25,0.352-0.635,0.526-1.156,0.526H99.005c-1.089,0-1.872-0.19-2.348-0.578
			c-0.478-0.386-0.716-0.976-0.716-1.769c0-0.363,0.097-0.703,0.289-1.021c0.192-0.316,0.472-0.67,0.834-1.057l7.896-7.963
			c0.635-0.635,1.145-1.197,1.531-1.686c0.386-0.488,0.691-0.947,0.92-1.379c0.225-0.43,0.378-0.844,0.459-1.241
			c0.079-0.396,0.119-0.812,0.119-1.241v-0.17c0-0.75-0.29-1.367-0.868-1.855c-0.579-0.488-1.459-0.732-2.638-0.732
			c-1.021,0-1.873,0.194-2.553,0.58c-0.682,0.385-1.318,0.965-1.906,1.734c-0.317,0.432-0.715,0.681-1.19,0.749
			c-0.478,0.067-0.942-0.056-1.396-0.374c-0.455-0.317-0.748-0.717-0.887-1.192c-0.136-0.476-0.033-0.975,0.307-1.497
			c0.75-1.111,1.748-2.035,2.996-2.773c1.246-0.736,2.768-1.105,4.561-1.105c1.384,0,2.58,0.17,3.59,0.512
			c1.01,0.34,1.84,0.795,2.484,1.361c0.648,0.567,1.123,1.23,1.43,1.99c0.309,0.76,0.46,1.549,0.46,2.363v0.377
			c0,1.293-0.301,2.533-0.901,3.726c-0.602,1.192-1.479,2.366-2.638,3.522l-7.182,7.113h10.313c0.521,0,0.906,0.176,1.156,0.527
			c0.249,0.352,0.374,0.777,0.374,1.275C113.503,104.941,113.378,105.367,113.129,105.719z"/>
	</g>
</g>
</svg>
