<?xml version="1.0" encoding="utf-8"?>
<!-- Generator: Adobe Illustrator 16.0.0, SVG Export Plug-In . SVG Version: 6.00 Build 0)  -->
<!DOCTYPE svg PUBLIC "-//W3C//DTD SVG 1.1//EN" "http://www.w3.org/Graphics/SVG/1.1/DTD/svg11.dtd">
<svg version="1.1" id="레이어_1" xmlns="http://www.w3.org/2000/svg" xmlns:xlink="http://www.w3.org/1999/xlink" x="0px"
	 y="0px" width="160px" height="160px" viewBox="0 0 160 160" enable-background="new 0 0 160 160" xml:space="preserve">
<g>
	<g>
		<path fill="#FFFFFF" d="M76.08,154.17c-21.298,0-38.624-17.327-38.624-38.625c0-13.363,6.852-25.645,18.059-32.693V34.143
			c0-11.341,9.226-20.565,20.565-20.565c11.34,0,20.564,9.225,20.564,20.565v48.708c11.207,7.049,18.06,19.33,18.06,32.693
			C114.703,136.843,97.377,154.17,76.08,154.17z M76.08,22.848c-6.229,0-11.296,5.066-11.296,11.295v54.162l-2.458,1.307
			c-9.622,5.117-15.601,15.055-15.601,25.935c0,16.187,13.168,29.354,29.354,29.354c16.187,0,29.354-13.168,29.354-29.354
			c0-10.88-5.978-20.815-15.601-25.935l-2.459-1.307V34.143C87.375,27.914,82.307,22.848,76.08,22.848z"/>
		<path fill="#FFFFFF" d="M83.289,96.768V77.435c0-3.979-3.227-7.208-7.209-7.208c-3.981,0-7.21,3.229-7.21,7.208v19.333
			c-7.824,2.926-13.406,10.447-13.406,19.295c0,11.387,9.23,20.614,20.617,20.614c11.386,0,20.614-9.229,20.614-20.614
			C96.695,107.215,91.115,99.691,83.289,96.768z"/>
	</g>
	<g>
		<path fill="#FFFFFF" d="M107.164,22.975c-5.111,0-9.27-4.158-9.27-9.271c0-5.111,4.157-9.27,9.27-9.27
			c5.111,0,9.27,4.158,9.27,9.27C116.434,18.816,112.275,22.975,107.164,22.975z M107.164,10.614c-1.705,0-3.09,1.387-3.09,3.09
			s1.385,3.09,3.09,3.09c1.703,0,3.09-1.387,3.09-3.09S108.867,10.614,107.164,10.614z"/>
		<g>
			<path fill="#FFFFFF" d="M132.729,8.413c2.088,0,3.902,0.227,5.445,0.681c1.544,0.454,2.846,1.044,3.904,1.771
				c0.695,0.484,1.074,1.074,1.135,1.77c0.061,0.697-0.121,1.347-0.545,1.952c-0.395,0.575-0.908,0.953-1.543,1.135
				c-0.636,0.182-1.271,0.076-1.906-0.318c-0.969-0.574-1.951-0.99-2.951-1.248c-0.998-0.257-2.223-0.386-3.676-0.386
				c-2.512,0-4.447,0.825-5.81,2.474c-1.361,1.649-2.042,4.426-2.042,8.329v0.953c0,3.813,0.65,6.559,1.951,8.237
				c1.301,1.68,3.283,2.52,5.945,2.52c1.514,0,2.838-0.174,3.973-0.522c1.134-0.348,2.229-0.869,3.289-1.565
				c0.604-0.424,1.24-0.582,1.906-0.477c0.666,0.106,1.227,0.477,1.68,1.111c0.455,0.636,0.637,1.332,0.545,2.088
				c-0.09,0.757-0.5,1.393-1.225,1.906c-1.303,0.938-2.822,1.649-4.563,2.134c-1.74,0.483-3.653,0.726-5.741,0.726
				c-2.148,0-4.063-0.303-5.741-0.907c-1.68-0.605-3.102-1.543-4.267-2.814s-2.059-2.896-2.678-4.879
				c-0.621-1.981-0.932-4.35-0.932-7.104v-1.86c0-2.753,0.311-5.121,0.932-7.104c0.619-1.981,1.521-3.607,2.699-4.879
				c1.18-1.271,2.633-2.208,4.357-2.813C128.596,8.719,130.549,8.413,132.729,8.413z"/>
		</g>
	</g>
	<g>
		<path fill="#FFFFFF" d="M32.821,115.177c0-6.764,1.762-13.247,4.947-18.918c-13.549,10.712-22.328,27.699-22.328,46.859
			c12.437,0,21.734,0,29.379,0C37.436,136.078,32.821,126.159,32.821,115.177z"/>
		<path fill="#FFFFFF" d="M119.34,115.177c0,10.982-4.615,20.901-12,27.941c7.852,0,17.338,0,29.381,0
			c0-19.16-8.781-36.147-22.332-46.862C117.576,101.927,119.34,108.412,119.34,115.177z"/>
	</g>
</g>
</svg>
