<?xml version="1.0" encoding="utf-8"?>
<!-- Generator: Adobe Illustrator 16.0.0, SVG Export Plug-In . SVG Version: 6.00 Build 0)  -->
<!DOCTYPE svg PUBLIC "-//W3C//DTD SVG 1.1//EN" "http://www.w3.org/Graphics/SVG/1.1/DTD/svg11.dtd">
<svg version="1.1" id="레이어_1" xmlns="http://www.w3.org/2000/svg" xmlns:xlink="http://www.w3.org/1999/xlink" x="0px"
	 y="0px" width="160px" height="160px" viewBox="0 0 160 160" enable-background="new 0 0 160 160" xml:space="preserve">
<g>
	<g>
		<path d="M29.477,76.198c0-7.847,2.043-15.368,5.74-21.948C19.497,66.678,9.312,86.387,9.312,108.616c14.43,0,25.216,0,34.085,0
			C34.831,100.448,29.477,88.941,29.477,76.198z"/>
		<path d="M129.855,76.198c0,12.743-5.354,24.25-13.922,32.418c9.109,0,20.115,0,34.087,0c0-22.229-10.188-41.939-25.909-54.369
			C127.809,60.826,129.855,68.351,129.855,76.198z"/>
	</g>
	<path d="M111.336,59.517H86.648l9.114-27.769c0.854-3.252-1.605-6.46-4.965-6.46H59.992c-2.567,0-4.749,1.902-5.091,4.449
		l-6.847,51.344c-0.406,3.081,1.99,5.819,5.092,5.819h25.395l-9.862,41.61c-0.77,3.252,1.711,6.312,4.984,6.312
		c1.796,0,3.508-0.94,4.45-2.567l37.652-65.036C117.755,63.817,115.295,59.517,111.336,59.517z"/>
</g>
</svg>
