<?xml version="1.0" encoding="utf-8"?>
<!-- Generator: Adobe Illustrator 16.0.0, SVG Export Plug-In . SVG Version: 6.00 Build 0)  -->
<!DOCTYPE svg PUBLIC "-//W3C//DTD SVG 1.1//EN" "http://www.w3.org/Graphics/SVG/1.1/DTD/svg11.dtd">
<svg version="1.1" id="레이어_1" xmlns="http://www.w3.org/2000/svg" xmlns:xlink="http://www.w3.org/1999/xlink" x="0px"
	 y="0px" width="160px" height="160px" viewBox="0 0 160 160" enable-background="new 0 0 160 160" xml:space="preserve">
<g>
	<path d="M128.282,125.532l-93.486-0.011c-0.396,0.022-0.801,0.01-1.201,0l-4.377-0.002l0.224-0.425
		c-13.136-2.347-23.138-13.855-23.138-27.657c0-13.379,9.243-24.634,21.989-27.428c0.173-19.628,16.195-35.543,35.862-35.543
		c14.142,0,26.648,8.11,32.479,20.618c5.041-3.211,10.9-4.942,16.923-4.942c17.218,0,31.263,13.847,31.583,30.989
		c5.459,4.83,8.556,11.651,8.556,18.988C153.696,114.133,142.295,125.532,128.282,125.532z M64.155,41.591
		c-15.846,0-28.738,12.893-28.738,28.738c0,0.733,0.035,1.52,0.109,2.405l0.289,3.498l-3.492,0.342
		C21.552,77.63,13.429,86.6,13.429,97.438c0,11.563,9.407,20.97,20.97,20.97l0.181-0.011c0.144-0.01,0.287-0.02,0.434-0.025
		l6.13-0.207l-0.122,0.232l87.262,0.011c10.083,0,18.288-8.204,18.288-18.288c0-5.724-2.626-11.016-7.203-14.52l-1.461-1.118
		l0.064-1.839c0.008-0.179,0.019-0.357,0.031-0.536c0.009-0.125,0.02-0.248,0.02-0.375c0-13.489-10.975-24.464-24.464-24.464
		c-5.948,0-11.696,2.186-16.184,6.157l-4.131,3.654l-1.634-5.268C87.861,49.717,76.829,41.591,64.155,41.591z"/>
	<g>
		<path d="M86.464,87.408c-0.512-0.624-1.141-1.071-1.89-1.345c-0.749-0.272-1.621-0.408-2.62-0.408s-1.872,0.136-2.62,0.408
			c-0.749,0.273-1.379,0.721-1.89,1.345s-0.891,1.459-1.14,2.501c-0.25,1.043-0.375,2.338-0.375,3.88v0.715
			c0,1.544,0.125,2.837,0.375,3.881c0.249,1.043,0.629,1.877,1.14,2.5c0.511,0.625,1.141,1.073,1.89,1.344
			c0.748,0.273,1.621,0.41,2.62,0.41s1.871-0.137,2.62-0.41c0.749-0.271,1.378-0.719,1.89-1.344c0.51-0.623,0.89-1.457,1.141-2.5
			c0.248-1.044,0.374-2.337,0.374-3.881v-0.715c0-1.542-0.126-2.837-0.374-3.88C87.354,88.867,86.974,88.032,86.464,87.408z"/>
		<path d="M136.335,89.561l-3.507-2.683l0.16-4.414c0.007-0.234,0.022-0.465,0.037-0.697l0.011-0.16
			c-0.002-10.614-8.739-19.352-19.479-19.352c-4.729,0-9.304,1.743-12.879,4.905l-9.915,8.771l-3.918-12.643
			C83.749,53.294,74.63,46.58,64.155,46.58c-13.096,0-23.751,10.654-23.751,23.75c0,0.594,0.03,1.246,0.093,1.993l0.694,8.394
			l-8.381,0.822c-8.206,0.805-14.395,7.641-14.395,15.899c0,8.765,7.093,15.903,15.838,15.982c0.229-0.018,0.409-0.027,0.59-0.032
			l93.438,0.032c7.334,0,13.301-5.967,13.301-13.301C141.583,95.962,139.671,92.113,136.335,89.561z M67.082,104.476
			c-0.977,0.704-2.116,1.237-3.421,1.601s-2.739,0.544-4.305,0.544c-1.611,0-3.047-0.227-4.306-0.681
			c-1.259-0.453-2.326-1.156-3.199-2.11c-0.874-0.952-1.543-2.171-2.008-3.658c-0.466-1.486-0.698-3.262-0.698-5.327v-1.395
			c0-2.065,0.232-3.841,0.698-5.327c0.465-1.485,1.14-2.705,2.024-3.659c0.886-0.952,1.975-1.654,3.268-2.109
			c1.293-0.454,2.757-0.681,4.391-0.681c1.565,0,2.927,0.17,4.084,0.511c1.157,0.34,2.132,0.782,2.927,1.327
			c0.521,0.364,0.806,0.807,0.852,1.327c0.045,0.523-0.092,1.01-0.409,1.464c-0.295,0.432-0.681,0.715-1.157,0.851
			c-0.477,0.137-0.953,0.057-1.429-0.238c-0.727-0.431-1.464-0.743-2.213-0.935c-0.749-0.194-1.667-0.29-2.757-0.29
			c-1.883,0-3.335,0.618-4.356,1.855c-1.021,1.236-1.531,3.317-1.531,6.244v0.715c0,2.859,0.488,4.918,1.464,6.178
			s2.462,1.889,4.458,1.889c1.135,0,2.127-0.131,2.978-0.391c0.852-0.263,1.674-0.653,2.468-1.175
			c0.454-0.317,0.931-0.437,1.43-0.357c0.499,0.08,0.919,0.357,1.259,0.833c0.341,0.478,0.477,1,0.408,1.565
			C67.933,103.614,67.626,104.09,67.082,104.476z M92.368,94.844c0,2.065-0.233,3.841-0.698,5.327
			c-0.465,1.487-1.14,2.706-2.024,3.658c-0.885,0.954-1.975,1.657-3.267,2.11c-1.294,0.454-2.769,0.681-4.425,0.681
			s-3.131-0.227-4.424-0.681c-1.294-0.453-2.383-1.156-3.268-2.11c-0.886-0.952-1.561-2.171-2.025-3.658
			c-0.466-1.486-0.698-3.262-0.698-5.327v-1.395c0-2.065,0.232-3.841,0.698-5.327c0.465-1.485,1.14-2.705,2.025-3.659
			c0.885-0.952,1.974-1.654,3.268-2.109c1.293-0.454,2.768-0.681,4.424-0.681s3.131,0.227,4.425,0.681
			c1.292,0.455,2.382,1.157,3.267,2.109c0.885,0.954,1.56,2.174,2.024,3.659c0.465,1.486,0.698,3.262,0.698,5.327V94.844z
			 M113.129,105.719c-0.25,0.352-0.635,0.526-1.157,0.526H99.005c-1.089,0-1.872-0.191-2.348-0.578
			c-0.478-0.386-0.716-0.975-0.716-1.769c0-0.363,0.097-0.703,0.289-1.021c0.193-0.317,0.472-0.67,0.835-1.056l7.896-7.964
			c0.635-0.635,1.145-1.197,1.531-1.685c0.386-0.488,0.691-0.947,0.92-1.379c0.225-0.43,0.378-0.844,0.459-1.241
			c0.079-0.396,0.119-0.812,0.119-1.242v-0.17c0-0.749-0.29-1.367-0.868-1.855c-0.579-0.488-1.459-0.732-2.638-0.732
			c-1.021,0-1.872,0.194-2.553,0.58c-0.681,0.385-1.317,0.964-1.906,1.734c-0.317,0.432-0.714,0.681-1.19,0.749
			c-0.478,0.068-0.942-0.056-1.396-0.374c-0.455-0.317-0.748-0.716-0.886-1.192c-0.136-0.476-0.034-0.975,0.307-1.497
			c0.749-1.112,1.747-2.035,2.995-2.773c1.247-0.737,2.768-1.106,4.561-1.106c1.384,0,2.58,0.17,3.59,0.511
			c1.01,0.34,1.839,0.795,2.484,1.362c0.648,0.567,1.124,1.23,1.43,1.99c0.308,0.76,0.46,1.549,0.46,2.364v0.376
			c0,1.293-0.301,2.534-0.902,3.726s-1.479,2.366-2.637,3.523l-7.182,7.113h10.313c0.522,0,0.907,0.175,1.157,0.527
			c0.249,0.352,0.374,0.778,0.374,1.276C113.503,104.942,113.378,105.367,113.129,105.719z"/>
	</g>
</g>
</svg>
