<?xml version="1.0" encoding="utf-8"?>
<!-- Generator: Adobe Illustrator 16.0.0, SVG Export Plug-In . SVG Version: 6.00 Build 0)  -->
<!DOCTYPE svg PUBLIC "-//W3C//DTD SVG 1.1//EN" "http://www.w3.org/Graphics/SVG/1.1/DTD/svg11.dtd">
<svg version="1.1" id="레이어_1" xmlns="http://www.w3.org/2000/svg" xmlns:xlink="http://www.w3.org/1999/xlink" x="0px"
	 y="0px" width="160px" height="160px" viewBox="0 0 160 160" enable-background="new 0 0 160 160" xml:space="preserve">
<g>
	<path d="M81,87.199c16.311,0,29.58-13.236,29.58-29.505c0-6.747-4.38-16.447-13.391-29.655
		c-6.372-9.34-12.643-16.827-12.907-17.141L81,6.991l-3.283,3.907c-0.264,0.314-6.535,7.8-12.907,17.141
		c-9.011,13.208-13.391,22.909-13.391,29.655C51.419,73.963,64.689,87.199,81,87.199L81,87.199z"/>
	<path d="M151.553,104.43c-3.065-2.906-8.058-2.775-11.127,0.292l-15.457,15.448c0.006,0.174,0.013,0.348,0.013,0.522
		c0,4.051-1.578,7.86-4.441,10.729c-2.872,2.865-6.68,4.44-10.727,4.44H80.212v-8.557h29.603c1.771,0,3.438-0.688,4.693-1.941
		c1.244-1.245,1.933-2.906,1.933-4.671c0-0.434-0.041-0.859-0.122-1.268l-0.003-0.015c-0.604-3.089-3.339-5.331-6.501-5.331H72.379
		l-1.102-0.771c-0.036-0.025-4.944-3.367-12.219-4.771c-9.478-1.826-18.455,0.351-26.683,6.471l-1.134,0.844H7.991v35.27
		l16.591-2.975c8.579-2.003,17.625-1.911,26.162,0.264l18.047,4.599h46.408l36.508-37.325c1.484-1.483,2.302-3.455,2.302-5.552
		C154.009,107.956,153.137,105.932,151.553,104.43L151.553,104.43z"/>
</g>
</svg>
