<?xml version="1.0" encoding="utf-8"?>
<!-- Generator: Adobe Illustrator 16.0.0, SVG Export Plug-In . SVG Version: 6.00 Build 0)  -->
<!DOCTYPE svg PUBLIC "-//W3C//DTD SVG 1.1//EN" "http://www.w3.org/Graphics/SVG/1.1/DTD/svg11.dtd">
<svg version="1.1" id="레이어_1" xmlns="http://www.w3.org/2000/svg" xmlns:xlink="http://www.w3.org/1999/xlink" x="0px"
	 y="0px" width="160px" height="160px" viewBox="0 0 160 160" enable-background="new 0 0 160 160" xml:space="preserve">
<g>
	<path fill="#FFFFFF" d="M82.473,150.443c-20.643,0-37.435-16.793-37.435-37.434c0-19.191,30.751-64.179,34.257-69.245
		c0.722-1.042,1.909-1.664,3.178-1.664c1.266,0,2.453,0.622,3.176,1.664c3.506,5.066,34.259,50.053,34.259,69.245
		C119.906,133.65,103.113,150.443,82.473,150.443z M82.473,52.854C71.951,68.697,52.764,100.23,52.764,113.01
		c0,16.381,13.326,29.709,29.708,29.709c16.381,0,29.709-13.328,29.709-29.709C112.182,100.23,92.992,68.697,82.473,52.854z"/>
	<path fill="#FFFFFF" d="M126.295,39.994c0,8.416-6.824,15.24-15.242,15.24c-8.416,0-15.24-6.824-15.24-15.24
		c0-8.418,15.24-30.438,15.24-30.438S126.295,31.576,126.295,39.994z"/>
	<path fill="#FFFFFF" d="M56.771,64.479c0,6.369-5.163,11.532-11.533,11.532c-6.368,0-11.532-5.163-11.532-11.532
		c0-6.37,11.532-23.031,11.532-23.031S56.771,58.109,56.771,64.479z"/>
	<path fill="#FFFFFF" d="M104.37,112.163c0,12.095-9.804,21.897-21.899,21.897c-12.094,0-21.896-9.804-21.896-21.897
		c0-12.097,21.896-43.733,21.896-43.733S104.37,100.066,104.37,112.163z"/>
</g>
</svg>
