<?xml version="1.0" encoding="utf-8"?>
<!-- Generator: Adobe Illustrator 16.0.0, SVG Export Plug-In . SVG Version: 6.00 Build 0)  -->
<!DOCTYPE svg PUBLIC "-//W3C//DTD SVG 1.1//EN" "http://www.w3.org/Graphics/SVG/1.1/DTD/svg11.dtd">
<svg version="1.1" id="레이어_1" xmlns="http://www.w3.org/2000/svg" xmlns:xlink="http://www.w3.org/1999/xlink" x="0px"
	 y="0px" width="160px" height="160px" viewBox="0 0 160 160" enable-background="new 0 0 160 160" xml:space="preserve">
<path d="M96.723,135.342v4.326c0,3.44-2.506,6.305-5.763,6.792l-1.057,3.93c-0.573,2.131-2.474,3.624-4.676,3.624H74.761
	c-2.202,0-4.103-1.493-4.678-3.624l-1.024-3.93c-3.289-0.518-5.793-3.352-5.793-6.823v-4.325c0-2.315,1.84-4.173,4.133-4.173h25.19
	C94.881,131.169,96.723,133.027,96.723,135.342z M116.119,77.041c0,9.837-3.861,18.762-10.137,25.312
	c-4.767,4.995-7.843,11.363-8.869,18.155c-0.452,2.923-2.955,5.086-5.913,5.086H68.786c-2.925,0-5.459-2.133-5.882-5.056
	c-1.055-6.792-4.162-13.251-8.928-18.216c-6.155-6.457-9.985-15.23-10.076-24.887c-0.21-20.286,15.778-36.705,35.869-36.856
	C99.829,40.428,116.119,56.814,116.119,77.041z M84.082,54.956c0-2.254-1.812-4.111-4.073-4.111
	c-14.359,0-26.064,11.787-26.064,26.318c0,2.254,1.81,4.112,4.072,4.112c2.232,0,4.073-1.828,4.073-4.112
	c0-9.992,8.054-18.095,17.919-18.095C82.271,59.068,84.082,57.241,84.082,54.956z M80.009,28.608c2.233,0,4.073-1.828,4.073-4.112
	V10.087c0-2.254-1.812-4.11-4.073-4.11c-2.263,0-4.073,1.826-4.073,4.11v14.409C75.937,26.78,77.776,28.608,80.009,28.608z
	 M32.074,77.009c0-2.254-1.811-4.111-4.072-4.111h-14.27c-2.232,0-4.072,1.827-4.072,4.111c0,2.256,1.81,4.114,4.072,4.114h14.27
	C30.263,81.123,32.074,79.293,32.074,77.009z M146.285,72.897h-14.269c-2.232,0-4.072,1.827-4.072,4.111
	c0,2.256,1.81,4.114,4.072,4.114h14.269c2.232,0,4.072-1.83,4.072-4.114C150.357,74.755,148.548,72.897,146.285,72.897z
	 M40.369,111.247l-10.106,10.205c-1.599,1.614-1.599,4.202,0,5.817c0.785,0.793,1.84,1.188,2.866,1.188
	c1.026,0,2.083-0.396,2.866-1.188l10.106-10.204c1.599-1.613,1.599-4.205,0-5.818C44.532,109.634,41.938,109.634,40.369,111.247z
	 M116.783,43.99c1.024,0,2.081-0.396,2.864-1.187l10.106-10.204c1.6-1.615,1.6-4.205,0-5.818c-1.599-1.615-4.163-1.615-5.761,0
	l-10.106,10.205c-1.599,1.615-1.599,4.203,0,5.818C114.701,43.594,115.727,43.99,116.783,43.99z M40.369,42.772
	c0.785,0.792,1.84,1.187,2.866,1.187c1.026,0,2.081-0.395,2.866-1.187c1.599-1.615,1.599-4.205,0-5.818L35.995,26.75
	c-1.599-1.615-4.164-1.615-5.761,0c-1.599,1.615-1.599,4.203,0,5.818L40.369,42.772z M119.647,111.247
	c-1.599-1.613-4.161-1.613-5.761,0c-1.599,1.613-1.599,4.205,0,5.818l10.106,10.204c0.783,0.793,1.84,1.188,2.864,1.188
	c1.026,0,2.083-0.396,2.866-1.188c1.599-1.615,1.599-4.203,0-5.817L119.647,111.247z"/>
</svg>
