<?xml version="1.0" encoding="utf-8"?>
<!-- Generator: Adobe Illustrator 16.0.0, SVG Export Plug-In . SVG Version: 6.00 Build 0)  -->
<!DOCTYPE svg PUBLIC "-//W3C//DTD SVG 1.1//EN" "http://www.w3.org/Graphics/SVG/1.1/DTD/svg11.dtd">
<svg version="1.1" id="레이어_1" xmlns="http://www.w3.org/2000/svg" xmlns:xlink="http://www.w3.org/1999/xlink" x="0px"
	 y="0px" width="160px" height="160px" viewBox="0 0 160 160" enable-background="new 0 0 160 160" xml:space="preserve">
<g>
	<g>
		<path fill="#FFFFFF" d="M79.647,36.006c19.121,20.694,32.197,45.276,32.197,61.713c0,17.561-14.283,31.846-31.844,31.846
			c-17.559,0-31.846-14.285-31.846-31.846C48.154,80.716,63.984,52.904,79.647,36.006 M80,16.069
			c-20.83,16.283-46.211,56.129-46.211,81.65c0,25.522,20.69,46.213,46.211,46.213c25.521,0,46.212-20.689,46.212-46.213
			C126.212,72.198,104.186,38.337,80,16.069L80,16.069z"/>
		<path fill="#FFFFFF" d="M85.268,120.827c-2.152,0-4.146-1.394-4.809-3.56c-0.812-2.656,0.684-5.468,3.338-6.281
			c11.784-3.6,9.887-13.065,9.629-14.135c-0.645-2.701,1.022-5.412,3.723-6.06c2.697-0.644,5.412,1.021,6.061,3.724
			c1.621,6.785,0.268,20.973-16.471,26.09C86.248,120.756,85.752,120.827,85.268,120.827z"/>
	</g>
	<g>
		<path fill="#FFFFFF" d="M26.738,98.37c0-8.327,2.168-16.31,6.091-23.292C16.147,88.268,5.338,109.184,5.338,132.771
			c15.313,0,26.76,0,36.172,0C32.419,124.104,26.738,111.893,26.738,98.37z"/>
		<path fill="#FFFFFF" d="M133.262,98.37c0,13.522-5.682,25.733-14.773,34.401c9.668,0,21.348,0,36.175,0
			c0-23.59-10.812-44.506-27.496-57.697C131.091,82.057,133.262,90.042,133.262,98.37z"/>
	</g>
</g>
</svg>
