<?xml version="1.0" encoding="utf-8"?>
<!-- Generator: Adobe Illustrator 16.0.0, SVG Export Plug-In . SVG Version: 6.00 Build 0)  -->
<!DOCTYPE svg PUBLIC "-//W3C//DTD SVG 1.1//EN" "http://www.w3.org/Graphics/SVG/1.1/DTD/svg11.dtd">
<svg version="1.1" id="레이어_1" xmlns="http://www.w3.org/2000/svg" xmlns:xlink="http://www.w3.org/1999/xlink" x="0px"
	 y="0px" width="160px" height="160px" viewBox="0 0 160 160" enable-background="new 0 0 160 160" xml:space="preserve">
<g>
	<path fill="#FFFFFF" d="M74.758,14.102c9.807,0,17.785,7.979,17.785,17.785v59.511v4.158l2.85,3.025
		c4.924,5.232,7.635,12.063,7.635,19.234c0,15.482-12.598,28.08-28.083,28.08c-15.484,0-28.082-12.597-28.082-28.08
		c0-7.033,2.614-13.762,7.36-18.948l2.75-3.004v-4.072V31.887C56.974,22.081,64.951,14.102,74.758,14.102 M74.758,3.618
		c-15.612,0-28.268,12.656-28.268,28.269v59.905c-6.277,6.858-10.11,15.993-10.11,26.024c0,21.3,17.268,38.564,38.565,38.564
		c21.298,0,38.565-17.266,38.565-38.564c0-10.227-3.988-19.518-10.482-26.42V31.887C103.025,16.274,90.371,3.618,74.758,3.618
		L74.758,3.618z"/>
	<path fill="#FFFFFF" d="M82.434,102.739V47.425H67.457v55.314c-5.543,2.759-9.361,8.465-9.361,15.077
		c0,9.306,7.544,16.85,16.849,16.85c9.305,0,16.849-7.544,16.849-16.85C91.794,111.204,87.977,105.498,82.434,102.739z"/>
	<rect x="108.27" y="25.334" fill="#FFFFFF" width="15.352" height="11.982"/>
	<rect x="108.27" y="46.676" fill="#FFFFFF" width="15.352" height="11.982"/>
	<rect x="108.27" y="68.393" fill="#FFFFFF" width="15.352" height="11.982"/>
</g>
</svg>
