<?xml version="1.0" encoding="utf-8"?>
<!-- Generator: Adobe Illustrator 16.0.0, SVG Export Plug-In . SVG Version: 6.00 Build 0)  -->
<!DOCTYPE svg PUBLIC "-//W3C//DTD SVG 1.1//EN" "http://www.w3.org/Graphics/SVG/1.1/DTD/svg11.dtd">
<svg version="1.1" id="레이어_1" xmlns="http://www.w3.org/2000/svg" xmlns:xlink="http://www.w3.org/1999/xlink" x="0px"
	 y="0px" width="160px" height="160px" viewBox="0 0 160 160" enable-background="new 0 0 160 160" xml:space="preserve">
<g>
	<path d="M74.758,14.102c9.807,0,17.785,7.979,17.785,17.785v59.511v4.158l2.849,3.026c4.924,5.232,7.635,12.063,7.635,19.234
		c0,15.483-12.598,28.081-28.082,28.081S46.863,133.3,46.863,117.816c0-7.033,2.614-13.761,7.36-18.948l2.75-3.004v-4.072V31.887
		C56.974,22.081,64.951,14.102,74.758,14.102 M74.758,3.618c-15.612,0-28.268,12.656-28.268,28.269v59.905
		c-6.277,6.858-10.11,15.993-10.11,26.024c0,21.3,17.268,38.565,38.565,38.565c21.298,0,38.565-17.266,38.565-38.565
		c0-10.226-3.988-19.517-10.483-26.419V31.887C103.026,16.274,90.371,3.618,74.758,3.618L74.758,3.618z"/>
	<path d="M82.434,102.739V47.425H67.457v55.314c-5.543,2.759-9.361,8.465-9.361,15.077c0,9.306,7.544,16.85,16.849,16.85
		c9.305,0,16.849-7.544,16.849-16.85C91.794,111.204,87.977,105.498,82.434,102.739z"/>
	<rect x="108.269" y="25.334" width="15.352" height="11.982"/>
	<rect x="108.269" y="46.676" width="15.352" height="11.982"/>
	<rect x="108.269" y="68.393" width="15.352" height="11.982"/>
</g>
</svg>
