<?xml version="1.0" encoding="utf-8"?>
<!-- Generator: Adobe Illustrator 16.0.0, SVG Export Plug-In . SVG Version: 6.00 Build 0)  -->
<!DOCTYPE svg PUBLIC "-//W3C//DTD SVG 1.1//EN" "http://www.w3.org/Graphics/SVG/1.1/DTD/svg11.dtd">
<svg version="1.1" id="레이어_1" xmlns="http://www.w3.org/2000/svg" xmlns:xlink="http://www.w3.org/1999/xlink" x="0px"
	 y="0px" width="61.371px" height="61.372px" viewBox="0 0 61.371 61.372" enable-background="new 0 0 61.371 61.372"
	 xml:space="preserve">
<path opacity="0.3" fill="#FFFFFF" d="M54.907,15.772c-3.488-7.16-11.015-7.894-16.892-5.324c-1.836-1.102-3.67-1.469-5.141-1.652
	c0.553-2.754,1.836-4.223,2.021-4.406c0.732-0.551,0.732-1.652,0-2.387c-0.734-0.734-1.838-0.918-2.571-0.184
	c-0.185,0.184-2.57,2.386-3.305,6.977c-1.835,0.183-3.671,0.734-5.323,1.835c-5.691-2.753-13.403-2.203-17.258,5.141
	C2.4,23.117,7.356,46.799,14.7,55.795c2.571,3.305,5.141,4.224,7.16,4.224c0.734,0,1.469-0.185,2.02-0.368
	c0.918-0.365,1.652-0.551,2.387-0.917c1.285,0.917,2.753,1.285,4.406,1.285c1.653,0,3.121-0.552,4.407-1.285
	c0.734,0.366,1.469,0.733,2.387,0.917c0.551,0.184,1.284,0.368,2.02,0.368c2.021,0,4.59-0.919,7.16-4.224
	C54.174,46.618,58.945,23.117,54.907,15.772z M44.075,53.592c-1.835,2.203-3.673,3.121-5.324,2.755c-0.185,0-0.55-0.185-0.733-0.185
	c0,0,0-0.184,0.185-0.184c0.55-0.919,0.366-2.021-0.552-2.57c-0.918-0.551-2.021-0.367-2.569,0.551
	c-1.286,1.836-2.569,2.754-4.223,2.754c-2.571,0-4.59-2.202-6.059-6.609c-0.367-0.918-1.469-1.469-2.387-1.102
	s-1.469,1.47-1.101,2.388c0.734,2.019,1.469,3.487,2.387,4.772c-0.185,0.185-0.551,0.185-0.734,0.366
	c-1.652,0.552-3.489-0.366-5.325-2.753C10.846,45.514,6.622,23.3,9.743,17.792c2.571-4.773,7.344-5.324,11.199-4.222
	c-1.469,1.835-2.57,4.589-2.57,7.894c0,1.102,0.734,2.02,1.835,2.02c0.918,0,1.837-0.918,1.837-1.835
	c0.367-8.262,6.976-9.18,8.996-9.18c1.835,0,6.243,0.367,8.079,4.589c0.184,0.734,1.283,1.102,2.203,0.734
	c0.918-0.367,1.283-1.468,0.918-2.387c-0.368-0.734-0.734-1.468-1.286-2.02c3.854-1.285,8.446-0.734,11.017,4.223
	C54.907,23.117,50.868,45.331,44.075,53.592z"/>
</svg>
