<?xml version="1.0" encoding="utf-8"?>
<!-- Generator: Adobe Illustrator 16.0.0, SVG Export Plug-In . SVG Version: 6.00 Build 0)  -->
<!DOCTYPE svg PUBLIC "-//W3C//DTD SVG 1.1//EN" "http://www.w3.org/Graphics/SVG/1.1/DTD/svg11.dtd">
<svg version="1.1" id="레이어_1" xmlns="http://www.w3.org/2000/svg" xmlns:xlink="http://www.w3.org/1999/xlink" x="0px"
	 y="0px" width="61.371px" height="61.372px" viewBox="0 0 61.371 61.372" enable-background="new 0 0 61.371 61.372"
	 xml:space="preserve">
<g opacity="0.4">
	<g>
		<path fill="#FFFFFF" d="M9.332,28.794c-0.977,0-1.769,0.792-1.769,1.769v3.54c0,0.978,0.792,1.771,1.769,1.771
			c0.978,0,1.771-0.793,1.771-1.771v-3.54C11.103,29.587,10.31,28.794,9.332,28.794z M16.41,21.716c-0.977,0-1.77,0.792-1.77,1.769
			v3.54c0,0.977,0.793,1.769,1.77,1.769c0.978,0,1.769-0.792,1.769-1.769v-3.54C18.179,22.509,17.388,21.716,16.41,21.716z
			 M60.368,32.195c0.69-0.69,0.69-1.811,0-2.502l-2.502-2.502c-0.455-0.455-0.962-0.856-1.509-1.2
			c2.235-3.244,2.033-7.458,2.022-7.657c-0.05-0.901-0.769-1.62-1.67-1.669c-0.198-0.012-4.413-0.213-7.655,2.023
			c-0.345-0.547-0.746-1.053-1.201-1.508l-2.502-2.502c-0.69-0.69-1.812-0.69-2.502,0c-1.736,1.737-2.599,4.021-2.586,6.302
			c-1.143-0.661-2.324-1.199-3.541-1.555c-0.148-0.044-0.3-0.084-0.447-0.122c-1.609-1.653-3.793-2.848-6.644-3.614
			c1.665-1.61,2.706-3.865,2.706-6.36c0-0.978-0.793-1.769-1.771-1.769h-3.539c-0.644,0-1.285,0.074-1.914,0.218
			c-0.713-3.875-3.834-6.712-3.983-6.845c-0.672-0.602-1.689-0.602-2.362,0c-0.149,0.133-3.271,2.971-3.983,6.845
			c-0.63-0.145-1.272-0.218-1.914-0.218h-3.54c-0.977,0-1.769,0.792-1.769,1.769c0,2.455,1.005,4.68,2.627,6.284
			c-6.178,1.65-9.706,5.782-9.706,13.182c0,5.383,1.874,11.89,5.012,17.405c3.401,5.977,7.699,9.799,12.16,10.848
			c2.702,2.822,6.542,3.845,10.434,3.845c2.094,0,4.372-0.295,6.791-0.892c6.291-1.547,12.701-5.01,16.729-9.037
			c5.197-5.195,5.684-10.605,2.459-16.178h0.043C56.475,34.786,58.695,33.866,60.368,32.195z M12.872,11.099
			c0.954,0,1.872,0.264,2.733,0.785c1.285,0.78,2.896-0.304,2.666-1.787l-0.012-0.065c-0.042-0.272-0.078-0.507-0.078-0.704
			c0-1.737,0.948-3.356,1.769-4.433c0.822,1.078,1.77,2.697,1.77,4.433c0,0.197-0.036,0.432-0.08,0.704l-0.01,0.064
			c-0.232,1.485,1.384,2.564,2.666,1.787c0.861-0.521,1.779-0.785,2.733-0.785h1.466c-0.73,2.06-2.698,3.539-5.006,3.539H16.41
			c-2.307,0-4.275-1.479-5.005-3.539L12.872,11.099L12.872,11.099z M15.043,40.165c-1.095,4.449-1.17,8.416-0.27,11.657
			c-2.212-1.604-4.355-4.13-6.202-7.372c-2.807-4.932-4.549-10.931-4.549-15.655c0-7.839,4.168-10.618,15.926-10.618
			c4.243,0,7.586,0.445,10.081,1.349c-2.044,0.689-4.031,1.992-5.95,3.911C20.054,27.463,16.591,33.872,15.043,40.165z
			 M49.105,48.461c-3.596,3.596-9.371,6.699-15.071,8.103c-6.049,1.487-11.046,0.815-13.708-1.847
			c-2.662-2.661-3.335-7.659-1.848-13.709c1.403-5.7,4.508-11.473,8.104-15.07c6.34-6.341,11.761-3.254,18.77,3.754
			C52.741,37.081,55.223,42.346,49.105,48.461z M50.357,29.691l-5.006-5.005c-1.631-1.63-1.978-4.068-1.037-6.042l1.037,1.037
			c0.674,0.675,1.139,1.511,1.377,2.488c0.357,1.461,2.266,1.833,3.148,0.622l0.039-0.054c0.162-0.223,0.301-0.415,0.439-0.554
			c1.229-1.228,3.043-1.702,4.387-1.882c-0.182,1.342-0.654,3.158-1.885,4.385c-0.139,0.139-0.33,0.28-0.553,0.442l-0.054,0.039
			c-1.215,0.885-0.835,2.791,0.621,3.147c0.979,0.24,1.813,0.704,2.489,1.376l1.037,1.041c-0.705,0.337-1.483,0.516-2.289,0.516
			C52.693,31.249,51.359,30.694,50.357,29.691z M37.846,39.702l2.502-2.502c0.691-0.691,0.691-1.812,0-2.503
			c-0.69-0.69-1.812-0.69-2.502,0L35.343,37.2c-0.69,0.69-0.69,1.811,0,2.502C36.034,40.393,37.154,40.393,37.846,39.702z
			 M25.332,47.209l-2.502,2.504c-0.691,0.688-0.691,1.811,0,2.502s1.813,0.688,2.502,0l2.502-2.502c0.691-0.691,0.691-1.813,0-2.504
			C27.143,46.518,26.023,46.519,25.332,47.209z M25.332,37.2l-2.502,2.502c-0.691,0.691-0.691,1.813,0,2.504
			c0.691,0.689,1.811,0.689,2.502,0l2.502-2.504c0.691-0.691,0.691-1.812,0-2.502C27.143,36.508,26.023,36.508,25.332,37.2z
			 M38.881,43.67l-2.502,2.502c-0.691,0.691-0.691,1.812,0,2.502c0.691,0.691,1.813,0.691,2.502,0l2.503-2.502
			c0.691-0.69,0.691-1.812,0-2.502C40.691,42.98,39.572,42.98,38.881,43.67z M35.343,24.687c-0.69-0.69-1.813-0.69-2.503,0
			l-2.503,2.504c-0.691,0.691-0.691,1.811,0,2.502s1.813,0.691,2.503,0l2.503-2.502C36.034,26.499,36.034,25.379,35.343,24.687z
			 M45.354,44.708c0.69,0.69,1.812,0.69,2.502,0l2.502-2.502c0.691-0.691,0.691-1.813,0-2.504c-0.69-0.69-1.812-0.691-2.502,0
			l-2.502,2.504C44.661,42.895,44.661,44.017,45.354,44.708z"/>
	</g>
</g>
</svg>
