<?xml version="1.0" encoding="utf-8"?>
<!-- Generator: Adobe Illustrator 16.0.0, SVG Export Plug-In . SVG Version: 6.00 Build 0)  -->
<!DOCTYPE svg PUBLIC "-//W3C//DTD SVG 1.1//EN" "http://www.w3.org/Graphics/SVG/1.1/DTD/svg11.dtd">
<svg version="1.1" id="레이어_1" xmlns="http://www.w3.org/2000/svg" xmlns:xlink="http://www.w3.org/1999/xlink" x="0px"
	 y="0px" width="61.371px" height="61.372px" viewBox="0 0 61.371 61.372" enable-background="new 0 0 61.371 61.372"
	 xml:space="preserve">
<path opacity="0.2" fill="#FFFFFF" d="M7.622,24.71c1.65-2.855,3.948-5.401,6.701-7.435c-2.313-2.121-3.188-4.646-3.231-4.769
	c-0.186-0.549,0.073-1.147,0.6-1.391c0.524-0.243,1.15-0.049,1.448,0.448c0.11,0.182,0.9,1.384,2.661,1.384
	c0.611,0,1.34-0.146,2.197-0.528c4.348-1.943,8.95-1.198,9.786-1.04h0.656c0.979-2.353,4.039-9.02,7.477-9.653
	c1.237-0.229,2.299,0.171,2.909,1.098c0.744,1.131,0.813,3.304-0.502,5.271c-0.486,0.728-1.094,1.761-1.787,3.037
	c1.941-0.098,4.814,0.048,7.587,1.287c3.326,1.485,4.71-0.61,4.856-0.854c0.291-0.492,0.906-0.689,1.432-0.458
	c0.523,0.23,0.794,0.816,0.628,1.365c-0.04,0.135-0.915,2.965-3.241,5.38c2.564,2.046,4.699,4.559,6.219,7.332
	c1.819,3.33,2.744,6.919,2.744,10.668c0,6.393-2.726,12.396-7.676,16.906c-4.921,4.482-11.455,6.951-18.4,6.951
	s-13.48-2.469-18.4-6.951c-4.95-4.51-7.676-10.514-7.676-16.906C4.609,31.97,5.651,28.118,7.622,24.71z M43.197,14.489
	c-3.12-1.396-6.508-1.151-7.871-0.969l-0.123,0.28v0.002l-1.256,2.88c-0.25,0.57-0.91,0.833-1.482,0.589
	c-0.572-0.243-0.843-0.901-0.604-1.476c0.312-0.754,0.856-1.997,1.259-2.906c0.149-0.338,0.271-0.607,0.334-0.75
	c0.007-0.016,0.015-0.032,0.022-0.046c0.015-0.04,0.031-0.078,0.051-0.116c1.166-2.268,2.146-3.998,2.912-5.143
	c0.723-1.081,0.773-2.338,0.494-2.765c-0.041-0.06-0.135-0.203-0.604-0.116c-1.55,0.287-4.271,4.308-6.064,8.966
	c-0.169,0.438-0.589,0.726-1.058,0.726h-1.534c-0.079,0-0.16-0.009-0.237-0.025c-0.022-0.004-1.179-0.241-2.835-0.241
	c-1.612,0-3.699,0.225-5.677,1.109c-1.349,0.603-2.509,0.775-3.475,0.717c0.405,0.418,0.874,0.828,1.411,1.195
	c2.352,1.607,5.298,1.924,8.759,0.945c0.423-0.121,0.878,0.016,1.166,0.348c0.288,0.332,0.356,0.801,0.18,1.204
	c-0.174,0.388-0.485,0.696-0.96,1.165c-0.869,0.858-2.303,2.275-3.04,4.628c1.14-0.483,2.22-0.548,2.995-0.596
	c0.369-0.023,0.752-0.047,0.916-0.104l0.111-0.039c2.555-0.902,2.936-1.721,2.936-2.129c0-0.626,0.519-1.134,1.145-1.134
	c0.625,0,1.134,0.508,1.134,1.134c0,0.974,2.868,2.744,4.042,3.162c0.135,0.049,0.275,0.094,0.424,0.143
	c0.656,0.213,1.445,0.468,2.368,1.059c-0.79-2.37-2.183-4.004-3.043-5.013c-0.411-0.484-0.685-0.802-0.832-1.134
	c-0.179-0.402-0.108-0.872,0.179-1.204c0.219-0.251,0.533-0.391,0.857-0.391c0.104,0,0.207,0.014,0.31,0.042
	c3.487,0.988,6.452,0.509,8.813-1.422l0,0c0.714-0.584,1.301-1.24,1.779-1.888C46.034,15.32,44.738,15.177,43.197,14.489
	C40.077,13.093,44.738,15.177,43.197,14.489z M30.686,57.442c13.126,0,23.809-9.686,23.809-21.59c0-6.409-3.069-12.378-8.451-16.497
	c-1.594,1.102-3.46,1.734-5.39,1.865c-0.571,0.039-1.146,0.036-1.717-0.004c1.278,1.736,2.767,4.372,2.942,7.978
	c0.022,0.485-0.264,0.931-0.716,1.11c-0.135,0.053-0.275,0.079-0.417,0.079c-0.185,0-0.363-0.044-0.524-0.129
	c-0.037-0.02-0.072-0.041-0.104-0.063c-0.085-0.058-0.163-0.127-0.231-0.208c-1.683-1.974-2.871-2.36-3.92-2.701
	c-0.168-0.055-0.326-0.107-0.488-0.164c-0.037-0.015-2.799-1.125-4.41-2.86c-1.078,1.036-2.64,1.587-3.326,1.83l-0.103,0.036
	c-0.468,0.167-0.988,0.198-1.54,0.232c-1.22,0.075-2.604,0.16-3.861,1.636c-0.313,0.37-0.828,0.498-1.279,0.32
	c-0.451-0.18-0.739-0.625-0.716-1.11c0.161-3.29,1.424-5.552,2.619-7.064c-1.792,0.126-3.615-0.098-5.283-0.786
	c-0.46-0.19-0.91-0.409-1.339-0.662c-2.756,1.913-5.048,4.374-6.655,7.154c-1.771,3.063-2.707,6.524-2.707,10.007
	C6.877,47.756,17.558,57.442,30.686,57.442z"/>
</svg>
