<?xml version="1.0" encoding="utf-8"?>
<!-- Generator: Adobe Illustrator 16.0.0, SVG Export Plug-In . SVG Version: 6.00 Build 0)  -->
<!DOCTYPE svg PUBLIC "-//W3C//DTD SVG 1.1//EN" "http://www.w3.org/Graphics/SVG/1.1/DTD/svg11.dtd">
<svg version="1.1" id="레이어_1" xmlns="http://www.w3.org/2000/svg" xmlns:xlink="http://www.w3.org/1999/xlink" x="0px"
	 y="0px" width="61.371px" height="61.372px" viewBox="0 0 61.371 61.372" enable-background="new 0 0 61.371 61.372"
	 xml:space="preserve">
<g>
	<g>
		<path fill="#FFFFFF" d="M53.728,29.344H36.245c-1.271,0-2.503,0.038-3.701,0.108c-1.165-6.618-9.546-14.96-11.326-16.669
			c-1.138-1.091-2.928-1.091-4.065,0C15.239,14.62,5.688,24.128,5.688,30.913c0,3.467,1.3,6.633,3.435,9.033
			C4.67,45.983,4.53,52.827,4.77,56.031c0,0.005,0,0.009,0,0.014c0.08,1.051,0.198,1.711,0.218,1.814
			c0.265,1.395,1.479,2.402,2.891,2.402h18.039c15.792,0,23.346-7.62,26.901-14.014c3.808-6.843,3.852-13.657,3.852-13.943
			C56.671,30.669,55.354,29.344,53.728,29.344z M19.185,19.138c3.258,3.498,6.87,8.193,7.511,10.984
			c0.065,0.284,0.1,0.549,0.1,0.791c0,2.376-1.083,4.505-2.779,5.908c-1.184,0.982-2.667,1.608-4.29,1.723
			c-0.18,0.014-0.359,0.022-0.542,0.022c-2.395,0-4.533-1.12-5.93-2.863c-1.05-1.313-1.681-2.979-1.681-4.79
			C11.575,28.301,15.595,22.992,19.185,19.138z M47.682,43.358C43.628,50.645,36.306,54.34,25.918,54.34H14.223
			c3.971-2.306,8.313-3.309,8.372-3.32c1.587-0.353,2.59-1.933,2.239-3.529s-1.921-2.604-3.509-2.251
			c-0.297,0.064-5.316,1.211-10.147,4.047c0.474-1.915,1.305-3.973,2.728-5.884c1.623,0.696,3.407,1.083,5.279,1.083
			c5.87,0,10.873-3.788,12.728-9.06c1.38-0.106,2.823-0.162,4.332-0.162h14.232C50.119,37.377,49.347,40.364,47.682,43.358z
			 M38.628,24.196c5.378,0,9.754-4.4,9.754-9.809c0-4.685-5.91-10.721-7.723-12.459c-1.136-1.091-2.925-1.091-4.063,0
			c-1.813,1.738-7.723,7.774-7.723,12.459C28.874,19.796,33.25,24.196,38.628,24.196z M38.63,8.336
			c2.188,2.477,3.864,5.034,3.864,6.051c0,2.145-1.733,3.889-3.866,3.889c-2.132,0-3.866-1.744-3.866-3.889
			C34.762,13.375,36.441,10.817,38.63,8.336z"/>
	</g>
</g>
</svg>
