<?xml version="1.0" encoding="utf-8"?>
<!-- Generator: Adobe Illustrator 16.0.0, SVG Export Plug-In . SVG Version: 6.00 Build 0)  -->
<!DOCTYPE svg PUBLIC "-//W3C//DTD SVG 1.1//EN" "http://www.w3.org/Graphics/SVG/1.1/DTD/svg11.dtd">
<svg version="1.1" id="레이어_1" xmlns="http://www.w3.org/2000/svg" xmlns:xlink="http://www.w3.org/1999/xlink" x="0px"
	 y="0px" width="61.371px" height="61.372px" viewBox="0 0 61.371 61.372" enable-background="new 0 0 61.371 61.372"
	 xml:space="preserve">
<g>
	<g>
		<path fill="#FFFFFF" d="M55.773,28.636l-1.953-0.587H38.033c2.622,4.911,0.786,11.027-4.099,13.663s-10.969,0.79-13.59-4.123
			c-2.62-4.91-0.785-11.027,4.1-13.662c1.458-0.786,3.085-1.198,4.739-1.199c0.395-0.023,0.791-0.023,1.187,0
			c-0.382-1.621-0.155-3.326,0.639-4.788l3.813-6.642l-1.568-5.193c-0.128-0.449-0.522-0.771-0.987-0.807H26.1
			C25.613,5.3,25.185,5.62,25.041,6.087l-1.825,6.054c-1.511,0.448-2.968,1.063-4.343,1.835l-5.475-2.973
			c-0.435-0.232-0.969-0.15-1.314,0.202l-4.435,4.348c-0.35,0.348-0.431,0.885-0.201,1.322l2.957,5.504
			c-0.767,1.377-1.379,2.836-1.825,4.349l-6.041,1.835c-0.464,0.144-0.782,0.575-0.785,1.063v6.202
			c0.003,0.488,0.321,0.92,0.785,1.063l6.077,1.836c0.452,1.488,1.063,2.922,1.825,4.274l-2.993,5.761
			C7.219,49.2,7.3,49.737,7.649,50.084l4.361,4.385c0.346,0.353,0.88,0.433,1.314,0.202l5.639-3.028
			c1.334,0.724,2.741,1.303,4.197,1.726l1.825,6.183c0.144,0.467,0.572,0.787,1.059,0.789h6.168
			c0.486-0.002,0.914-0.322,1.059-0.789l1.825-6.203c1.443-0.422,2.837-1.003,4.159-1.723l5.677,3.046
			c0.435,0.23,0.968,0.15,1.313-0.202l4.362-4.385c0.35-0.348,0.432-0.885,0.2-1.322l-3.03-5.688
			c0.728-1.333,1.309-2.743,1.736-4.201l6.148-1.835c0.465-0.146,0.782-0.575,0.784-1.064v-6.256
			C56.47,29.251,56.201,28.819,55.773,28.636z M59.807,19.976L49.368,1.886c-0.652-1.12-2.083-1.497-3.197-0.842
			c-0.346,0.203-0.635,0.493-0.838,0.842l-10.438,18.09c-0.726,1.071-0.451,2.533,0.614,3.263c0.41,0.281,0.898,0.423,1.395,0.407
			h20.894c1.29,0.043,2.37-0.974,2.413-2.27C60.226,20.878,60.084,20.388,59.807,19.976z"/>
	</g>
</g>
</svg>
